HIERARCHY
ROOT Hips
{
	OFFSET	0.00	0.00	0.00
	CHANNELS 6 Xposition Yposition Zposition Zrotation Xrotation Yrotation
	JOINT LeftUpLeg
	{
		OFFSET	 0.126116	-0.014019	-0.065224
		CHANNELS 3 Zrotation Xrotation Yrotation
		JOINT LeftLeg
		{
			OFFSET	 0.000000	 0.000000	 0.569914
			CHANNELS 3 Zrotation Xrotation Yrotation
			JOINT LeftFoot
			{
				OFFSET	 0.000000	 0.000000	 0.544423
				CHANNELS 3 Zrotation Xrotation Yrotation
				JOINT LeftToeBase
				{
					OFFSET	 0.000000	 0.000000	 0.207117
					CHANNELS 3 Zrotation Xrotation Yrotation
					End Site
					{
						OFFSET	 0.000000	 0.000000	 0.207117
					}
				}
			}
		}
	}
	JOINT RightUpLeg
	{
		OFFSET	-0.124023	-0.008373	-0.065224
		CHANNELS 3 Zrotation Xrotation Yrotation
		JOINT RightLeg
		{
			OFFSET	 0.000000	 0.000000	 0.570047
			CHANNELS 3 Zrotation Xrotation Yrotation
			JOINT RightFoot
			{
				OFFSET	 0.000000	 0.000000	 0.544354
				CHANNELS 3 Zrotation Xrotation Yrotation
				JOINT RightToeBase
				{
					OFFSET	 0.000000	 0.000000	 0.207540
					CHANNELS 3 Zrotation Xrotation Yrotation
					End Site
					{
						OFFSET	 0.000000	 0.000000	 0.207540
					}
				}
			}
		}
	}
	JOINT Spine
	{
		OFFSET	 0.000184	-0.007763	 0.117403
		CHANNELS 3 Zrotation Xrotation Yrotation
		JOINT Spine1
		{
			OFFSET	 0.000000	 0.000000	 0.137269
			CHANNELS 3 Zrotation Xrotation Yrotation
			JOINT Spine2
			{
				OFFSET	 0.000000	 0.000000	 0.156879
				CHANNELS 3 Zrotation Xrotation Yrotation
				JOINT LeftShoulder
				{
					OFFSET	 0.080501	-0.002496	 0.160144
					CHANNELS 3 Zrotation Xrotation Yrotation
					JOINT LeftArm
					{
						OFFSET	 0.000000	 0.000000	 0.164363
						CHANNELS 3 Zrotation Xrotation Yrotation
						JOINT LeftForeArm
						{
							OFFSET	 0.000000	 0.000000	 0.364576
							CHANNELS 3 Zrotation Xrotation Yrotation
							JOINT LeftHand
							{
								OFFSET	 0.000000	 0.000000	 0.360812
								CHANNELS 3 Zrotation Xrotation Yrotation
								JOINT LeftHandIndex1
								{
									OFFSET	 0.000000	 0.000000	 0.086006
									CHANNELS 3 Zrotation Xrotation Yrotation
									JOINT LeftHandIndex2
									{
										OFFSET	 0.000000	 0.000000	 0.047237
										CHANNELS 3 Zrotation Xrotation Yrotation
										JOINT LeftHandIndex3
										{
											OFFSET	-0.004284	-0.000551	 0.038165
											CHANNELS 3 Zrotation Xrotation Yrotation
											End Site
											{
												OFFSET	-0.004284	-0.000551	 0.038165
											}
										}
									}
								}
							}
						}
					}
				}
				JOINT Neck
				{
					OFFSET	 0.000000	 0.000000	 0.176489
					CHANNELS 3 Zrotation Xrotation Yrotation
					JOINT Head
					{
						OFFSET	 0.000000	-0.001747	 0.077940
						CHANNELS 3 Zrotation Xrotation Yrotation
						End Site
						{
							OFFSET	 0.000000	-0.001747	 0.077940
						}
					}
				}
				JOINT RightShoulder
				{
					OFFSET	-0.080363	 0.000306	 0.159706
					CHANNELS 3 Zrotation Xrotation Yrotation
					JOINT RightArm
					{
						OFFSET	 0.000000	 0.000000	 0.164196
						CHANNELS 3 Zrotation Xrotation Yrotation
						JOINT RightForeArm
						{
							OFFSET	 0.000000	 0.000000	 0.365611
							CHANNELS 3 Zrotation Xrotation Yrotation
							JOINT RightHand
							{
								OFFSET	 0.000000	 0.000000	 0.360648
								CHANNELS 3 Zrotation Xrotation Yrotation
								JOINT RightHandIndex1
								{
									OFFSET	 0.000000	 0.000000	 0.069977
									CHANNELS 3 Zrotation Xrotation Yrotation
									JOINT RightHandIndex2
									{
										OFFSET	 0.000000	 0.000000	 0.052305
										CHANNELS 3 Zrotation Xrotation Yrotation
										JOINT RightHandIndex3
										{
											OFFSET	 0.009002	-0.000782	 0.042196
											CHANNELS 3 Zrotation Xrotation Yrotation
											End Site
											{
												OFFSET	 0.009002	-0.000782	 0.042196
											}
										}
									}
								}
							}
						}
					}
				}
			}
		}
	}
}
MOTION
Frames:    12
Frame Time: 0.03333334
-0.446840	-0.033079	 1.271790	-179.677500	-4.480742	 1.000651	 20.495310	 1.334097	 174.676800	-7.392165	-12.172720	-1.687465	-2.081060	 71.085950	-7.336825	-2.385833	 28.452760	 0.000004	 16.032890	 3.617810	 177.823700	 2.383737	-9.398832	 0.140630	 10.031540	 67.800560	 5.088803	 2.384659	 28.388700	-0.000001	-0.184027	 10.508340	-2.388122	 0.646653	-0.656175	 1.598768	-0.600433	-1.876277	 0.118626	-91.776180	 78.527380	-180.000000	-45.121080	 0.434895	-5.208571	 1.281141	-1.489410	-24.480640	-0.115571	-13.589410	-1.787691	-4.130319	 21.525730	 0.991547	-5.167930	 0.731704	 3.519349	-1.378229	 35.397820	-2.634230	-2.717091	 0.544846	 1.597216	-14.338040	-26.488240	-13.572680	 89.781990	 78.203870	-179.999900	 26.797130	-6.062893	 10.041120	-17.659690	-2.257640	 10.856230	-26.795810	 51.228220	 124.940900	 5.716227	 19.173190	-3.685159	 5.027444	 0.246877	-9.377972	-2.350882	 35.473990	 5.254307
-0.446955	-0.032992	 1.271774	-179.253600	-4.820767	 1.711012	 23.484670	 0.412482	 173.458500	-9.208078	-13.391060	-2.283553	 0.881416	 71.309930	-8.692370	-2.385833	 28.452760	 0.000004	 15.383620	 4.538293	 177.086300	 3.450292	-7.963696	 0.267163	 3.857427	 66.224750	 10.763450	 2.384659	 28.388700	-0.000001	-0.208799	 10.801030	-2.919021	 0.788810	 0.182204	 0.538969	-0.997956	-3.358168	 1.039124	-91.776200	 78.527400	-180.000000	-55.049000	 3.788818	-3.900541	 0.482163	-1.219706	-26.279510	-0.725193	-12.421690	-2.111985	-4.130319	 21.525730	 0.991547	-5.167930	 0.731704	 3.519349	-1.378229	 35.397820	-2.634230	-3.166708	 1.219506	 2.220870	-15.538850	-28.674700	-16.398500	 89.782100	 78.203870	 180.000000	 34.044190	-3.814312	 8.804955	-17.949480	-3.075252	 14.285780	-37.823970	 54.101940	 142.551500	 5.716227	 19.173190	-3.685159	 5.027444	 0.246877	-9.377972	-2.350882	 35.473990	 5.254307
-0.447190	-0.032976	 1.271504	-178.408700	-4.616180	 1.598889	 20.857080	 0.295992	 173.978900	-9.233799	-13.830240	-2.363243	-0.827012	 71.835960	-6.859356	-2.385833	 28.452760	 0.000004	 13.719700	 3.399987	 177.586400	 3.749430	-10.328170	 0.399427	 3.200353	 67.574070	 11.192200	 2.384659	 28.388700	-0.000001	-1.227422	 10.760740	-2.616201	 0.736362	-0.502521	 0.243340	-0.938206	-2.468135	 1.310247	-91.776200	 78.527430	-180.000000	-52.873560	 3.903507	 0.433336	 0.439321	-1.715152	-35.245200	-0.517971	-12.622900	-2.109305	-4.130319	 21.525730	 0.991547	-5.167930	 0.731704	 3.519349	-1.378229	 35.397820	-2.634230	-3.075264	 0.791426	 2.036594	-15.305260	-27.809900	-16.170120	 89.782140	 78.203920	 180.000000	 33.773850	-3.679856	 2.857572	-15.505350	-4.891423	 27.117550	-29.102490	 62.485510	 127.189500	 5.716227	 19.173190	-3.685159	 5.027444	 0.246877	-9.377972	-2.350882	 35.473990	 5.254307
-0.447713	-0.033290	 1.270300	-176.905700	-4.771574	 1.321211	 16.621210	-1.125609	 174.764100	-9.428673	-18.259500	-3.159023	-5.701103	 74.963060	-1.780797	-2.385833	 28.452760	 0.000004	 10.628610	 1.340864	 178.761700	 4.345809	-15.741790	 0.766503	 2.170683	 69.935970	 11.783810	 2.384659	 28.388700	-0.000001	-2.943498	 10.618750	-2.562661	 0.526712	 0.155512	 0.723187	-1.227103	-2.369355	 1.239990	-91.776180	 78.527400	-180.000000	-49.907590	 6.600152	 12.424550	-0.510601	-2.540249	-59.834560	-0.565536	-12.346360	-2.125360	-4.130319	 21.525730	 0.991547	-5.167930	 0.731704	 3.519349	-1.378229	 35.397820	-2.634230	-3.162661	-0.102809	 0.363790	-14.863850	-26.412350	-12.285610	 89.782230	 78.203890	 179.999900	 34.625780	-1.128909	-8.637502	-12.128300	-8.683637	 54.814910	 6.938819	 67.281300	 84.257710	 5.716227	 19.173190	-3.685159	 5.027444	 0.246877	-9.377972	-2.350882	 35.473990	 5.254307
-0.448379	-0.034097	 1.267831	-175.990000	-4.837965	 1.296971	 13.337260	-3.701228	 175.279100	-9.591360	-25.147050	-4.351691	-15.134700	 78.850360	 7.654221	-2.385833	 28.452760	 0.000004	 8.338305	-1.485756	-179.830400	 4.863396	-22.307240	 1.269292	 4.209359	 71.851820	 9.118855	 2.384659	 28.388700	-0.000001	-4.405400	 10.248740	-2.828808	-0.066050	 1.550837	 1.015201	-1.377143	-3.067886	 1.330394	-91.776190	 78.527360	-180.000000	-43.291630	 14.135300	 25.599050	-1.969709	-2.866886	-89.670490	-0.656842	-11.896580	-2.144970	-4.130319	 21.525730	 0.991547	-5.167930	 0.731704	 3.519349	-1.378229	 35.397820	-2.634230	-3.929499	 1.994576	 2.206071	-15.929990	-27.973260	-16.514390	 89.782100	 78.203850	 180.000000	 32.594960	 6.182178	-18.334610	-6.734605	-10.412830	 86.229930	 39.630290	 55.719540	 41.067460	 5.716227	 19.173190	-3.685159	 5.027444	 0.246877	-9.377972	-2.350882	 35.473990	 5.254307
-0.449680	-0.036113	 1.262361	-174.801200	-4.282559	 1.927462	 9.632770	-8.486924	 175.402000	-10.359520	-36.451920	-6.491938	-50.712420	 83.811820	 43.171500	-2.385833	 28.452760	 0.000004	 6.628035	-6.345353	-177.702300	 5.873734	-31.848050	 2.299119	 9.677551	 74.558280	 2.398140	 2.384659	 28.388700	-0.000001	-6.935132	 9.339862	-3.299314	-1.400976	 3.133493	 0.011057	-1.372410	-3.416394	 2.102181	-91.776140	 78.527420	 180.000000	-12.440020	 43.074810	 15.603730	-3.418628	-2.561221	-119.230100	-0.599492	-11.631100	-2.153277	-4.130319	 21.525730	 0.991547	-5.167930	 0.731704	 3.519349	-1.378229	 35.397820	-2.634230	-4.079635	 1.784209	 2.075459	-15.770010	-26.981200	-15.747400	 89.782050	 78.203890	-180.000000	 13.198410	 35.717690	-5.570518	-1.166555	-9.210414	 118.103800	 31.234370	 23.321980	 8.309169	 5.716227	 19.173190	-3.685159	 5.027444	 0.246877	-9.377972	-2.350882	 35.473990	 5.254307
-0.455059	-0.039796	 1.254767	-173.621800	-2.963631	 1.724537	 5.789164	-12.980610	 176.991100	-11.222170	-47.041770	-8.680485	-116.166900	 83.203760	 108.196500	-2.385833	 28.452760	 0.000004	 7.608168	-11.634820	-173.644300	 6.168393	-41.267880	 3.068029	 23.420290	 76.604170	-12.532480	 2.384659	 28.388700	-0.000001	-9.863057	 7.851295	-2.932573	-3.010625	 4.117473	-0.598451	-1.509680	-3.239574	 2.515496	-91.776140	 78.527330	 180.000000	 54.209550	 44.474820	-79.162280	-1.234018	-2.993859	-75.890410	-0.460501	-11.192480	-2.173417	-4.130319	 21.525730	 0.991547	-5.167930	 0.731704	 3.519349	-1.378229	 35.397820	-2.634230	-4.056602	-0.143802	 0.662660	-15.107970	-24.342160	-11.868680	 89.782140	 78.203920	 179.999900	-59.790090	 43.815940	 88.705120	-8.131179	-10.322810	 78.548720	-9.707749	-4.836514	 1.678056	 5.716227	 19.173190	-3.685159	 5.027444	 0.246877	-9.377972	-2.350882	 35.473990	 5.254307
-0.469333	-0.043328	 1.254276	-172.427200	-3.093269	 1.766348	 2.316487	-12.265330	 178.196400	-10.009620	-45.859650	-7.628043	-113.161100	 84.185970	 104.379100	-2.385833	 28.452760	 0.000004	 9.687829	-11.584240	-173.461000	 4.612988	-41.530350	 2.050061	 30.929750	 77.264300	-19.204110	 2.384659	 28.388700	-0.000001	-10.275910	 8.196028	-3.394769	-2.298333	 3.200402	 1.848572	-1.602268	-2.766597	 1.426235	-91.776160	 78.527360	 180.000000	 58.406010	 41.280470	-87.046580	-1.408558	-3.076126	-79.359060	-0.440015	-10.618220	-2.205103	-4.130319	 21.525730	 0.991547	-5.167930	 0.731704	 3.519349	-1.378229	 35.397820	-2.634230	-4.290792	 0.254445	 1.303756	-15.340380	-24.591010	-13.023040	 89.782160	 78.203870	 179.999900	-62.839570	 42.864910	 90.090080	-8.571939	-9.797777	 75.501310	-10.530870	-10.420940	 3.540411	 5.716227	 19.173190	-3.685159	 5.027444	 0.246877	-9.377972	-2.350882	 35.473990	 5.254307
-0.480337	-0.043861	 1.253327	-171.810000	-2.999418	 2.320950	-0.253950	-11.407660	 178.997500	-8.997854	-44.640750	-6.748561	-103.909500	 85.091720	 94.458630	-2.385833	 28.452760	 0.000004	 11.711820	-14.302040	-172.522100	 4.385158	-46.143460	 2.064914	 48.478440	 80.004540	-36.772610	 2.384659	 28.388700	-0.000001	-9.317513	 8.313913	-3.962111	-0.601926	 1.617546	 3.669522	-1.692008	-2.066022	 0.642879	-91.776250	 78.527380	-179.999900	 46.715160	 46.456070	-82.120670	-2.473818	-3.149711	-98.804920	-0.406379	-10.015650	-2.237204	-4.130319	 21.525730	 0.991547	-5.167930	 0.731704	 3.519349	-1.378229	 35.397820	-2.634230	-4.567063	 0.965079	 2.066222	-15.720730	-25.441430	-14.586330	 89.782140	 78.203870	 180.000000	-59.325950	 44.089110	 80.369870	-10.494490	-8.915879	 63.377160	-3.725845	-18.165450	 21.456030	 5.716227	 19.173190	-3.685159	 5.027444	 0.246877	-9.377972	-2.350882	 35.473990	 5.254307
-0.482386	-0.042974	 1.256474	-171.051100	-2.244519	 2.137089	-3.773382	-10.554280	-179.963800	-7.443860	-42.495670	-5.427024	-81.358060	 86.018420	 70.819990	-2.385833	 28.452760	 0.000004	 17.190300	-18.613190	-170.208300	 2.260816	-48.329850	 0.551421	 65.902480	 79.388470	-53.637970	 2.384659	 28.388700	-0.000001	-6.366051	 7.697853	-4.924469	 3.148548	 1.933475	 8.674719	-1.991529	-2.465203	-2.132310	-91.776180	 78.527350	-180.000000	 37.226870	 49.731700	-62.681150	-2.851290	-3.106034	-105.570600	-0.391449	-9.437997	-2.267884	-4.130319	 21.525730	 0.991547	-5.167930	 0.731704	 3.519349	-1.378229	 35.397820	-2.634230	-4.764779	 0.087761	 1.890845	-15.770960	-25.261430	-13.631370	 89.782010	 78.203890	-179.999900	-46.560730	 47.137930	 63.072970	-8.619898	-10.017320	 75.543750	 1.264202	-18.597000	 16.277260	 5.716227	 19.173190	-3.685159	 5.027444	 0.246877	-9.377972	-2.350882	 35.473990	 5.254307
-0.463455	-0.033939	 1.263631	-170.249100	-1.523214	 2.593935	-8.116605	-9.757280	 179.327700	-5.855915	-40.559310	-4.182869	-64.718320	 85.041020	 53.368700	-2.385833	 28.452760	 0.000004	 24.394130	-19.743840	-170.023600	-2.238560	-38.588000	-2.347979	 48.375480	 74.305760	-33.079770	 2.384659	 28.388700	-0.000001	-2.425503	 6.651738	-6.675264	 7.559490	 5.332788	 10.866060	-2.380570	-4.580895	-3.099912	-91.776280	 78.527350	-179.999900	 42.253580	 47.923470	-64.943970	-2.745343	-3.094841	-103.789600	-0.441936	-8.910970	-2.290505	-4.130319	 21.525730	 0.991547	-5.167930	 0.731704	 3.519349	-1.378229	 35.397820	-2.634230	-5.232740	-0.904951	 2.402838	-15.980310	-24.872230	-13.578540	 89.782130	 78.203890	 180.000000	-42.773030	 47.348740	 58.497850	-7.913222	-10.388140	 79.785400	 0.197044	-26.314420	 8.898549	 5.716227	 19.173190	-3.685159	 5.027444	 0.246877	-9.377972	-2.350882	 35.473990	 5.254307
-0.440345	-0.019410	 1.267619	-169.714900	-1.140892	 3.115913	-12.778590	-8.921764	 178.120900	-4.412800	-39.940930	-3.198173	-63.687400	 84.079210	 51.561680	-2.385833	 28.452760	 0.000004	 26.115280	-20.927230	-171.596900	-3.357285	-34.566300	-2.773233	 38.249630	 70.553410	-21.819540	 2.384659	 28.388700	-0.000001	 0.778793	 5.544889	-8.246978	 10.967240	 8.101366	 11.617160	-2.717651	-6.221848	-3.250741	-91.776150	 78.527380	 180.000000	 45.029800	 46.931340	-67.084430	-2.683631	-3.178338	-102.382600	-0.376733	-8.468040	-2.314779	-4.130319	 21.525730	 0.991547	-5.167930	 0.731704	 3.519349	-1.378229	 35.397820	-2.634230	-5.527598	-1.334445	 2.300336	-16.166260	-25.248740	-12.784570	 89.782100	 78.203870	-180.000000	-41.966810	 46.728890	 56.486990	-7.602537	-9.955007	 81.102410	-1.162231	-34.071250	 4.413441	 5.716227	 19.173190	-3.685159	 5.027444	 0.246877	-9.377972	-2.350882	 35.473990	 5.254307
